<svg width="49" height="12" viewBox="0 0 49 12" fill="none" xmlns="http://www.w3.org/2000/svg">
<g clip-path="url(#clip0_2080_863)">
<path d="M4.47462 5.79093H0.5L4.6816 3.95097L6.61718 0L6.62173 3.75342C6.62326 4.87815 5.66157 5.79237 4.47312 5.79237L4.47462 5.79093Z" fill="white"/>
<path d="M9.19493 5.79093H13.1696L8.98798 3.95097L7.0524 0L7.04785 3.75342C7.04632 4.87815 8.00801 5.79237 9.19646 5.79237L9.19493 5.79093Z" fill="white"/>
<path d="M9.19493 6.20907H13.1696L8.98798 8.04903L7.0524 12L7.04785 8.24658C7.04632 7.12185 8.00801 6.20763 9.19646 6.20763L9.19493 6.20907Z" fill="white"/>
<path d="M4.47462 6.20907H0.5L4.6816 8.04903L6.61718 12L6.62173 8.24658C6.62326 7.12185 5.66157 6.20763 4.47312 6.20763L4.47462 6.20907Z" fill="white"/>
<path d="M20.0933 8.62577V9.863H15.3472V1.99277H16.7121V8.62577H20.0933Z" fill="white"/>
<path d="M20.9819 7.25303V1.99277H22.3469V7.17518C22.3469 8.09657 22.9038 8.74979 24.1257 8.74979C25.3477 8.74979 25.9061 8.09804 25.9061 7.17518V1.99277H27.2711V7.25447C27.2711 8.95166 25.9426 10.0086 24.1273 10.0086C22.3119 10.0086 20.9835 8.95166 20.9835 7.25447L20.9819 7.25303Z" fill="white"/>
<path d="M36.7618 9.86156H35.397V4.25231L32.8693 8.20907H32.7036L30.176 4.24079V9.86156H28.811V1.99277H30.2825L32.7858 5.92787L35.301 1.99277H36.7602V9.863L36.7618 9.86156Z" fill="white"/>
<path d="M39.7427 1.99277V9.863H38.3779V1.99277H39.7427Z" fill="white"/>
<path d="M46.4473 8.27688H42.9126L42.3312 9.8616H40.8477L43.8605 1.99138H45.4979L48.5001 9.8616H47.0288L46.4473 8.27688ZM45.9971 7.06275L44.6806 3.50976L43.3645 7.06275H45.9987H45.9971Z" fill="white"/>
</g>
<defs>
<clipPath id="clip0_2080_863">
<rect width="48" height="12" fill="white" transform="translate(0.5)"/>
</clipPath>
</defs>
</svg>
