<svg width="97" height="18" viewBox="0 0 97 18" fill="none"
  xmlns="http://www.w3.org/2000/svg">
  <path d="M25.0468 15V0.999975H27.4468V15H25.0468ZM31.2531 15V0.999975H33.6531V12.92H40.4531V15H31.2531ZM47.7492 15.22C46.5892 15.22 45.5825 15.0067 44.7292 14.58C43.8759 14.1533 43.2159 13.5133 42.7492 12.66C42.2825 11.7933 42.0492 10.7067 42.0492 9.39999V0.999975H44.4492V9.25999C44.4492 10.58 44.7292 11.5533 45.2892 12.18C45.8492 12.7933 46.6692 13.1 47.7492 13.1C48.8425 13.1 49.6625 12.7933 50.2092 12.18C50.7692 11.5533 51.0492 10.5867 51.0492 9.27999V0.999975H53.4492V9.39999C53.4492 10.7067 53.2159 11.7933 52.7492 12.66C52.2825 13.5133 51.6225 14.1533 50.7692 14.58C49.9159 15.0067 48.9092 15.22 47.7492 15.22ZM56.8586 15V0.999975H59.3386L63.7986 9.29999L68.2586 0.999975H70.6586V15H68.2586V5.19998L64.5586 12.1H62.9586L59.2586 5.19998V15H56.8586ZM75.561 15.22C75.2676 15.22 74.9943 15.1467 74.741 15C74.501 14.8667 74.3076 14.68 74.161 14.44C74.0276 14.1867 73.961 13.9133 73.961 13.62C73.961 13.1533 74.1143 12.7733 74.421 12.48C74.7276 12.1733 75.1076 12.02 75.561 12.02C76.0143 12.02 76.3943 12.1733 76.701 12.48C77.0076 12.7733 77.161 13.1533 77.161 13.62C77.161 13.9133 77.0876 14.1867 76.941 14.44C76.8076 14.68 76.621 14.8667 76.381 15C76.141 15.1467 75.8676 15.22 75.561 15.22ZM80.4524 15V0.999975H89.7524V3.07998H82.8524V7.05999H89.1524V9.13999H82.8524V15H80.4524ZM92.5469 15V0.999975H94.9469V15H92.5469Z" fill="white"/>
  <g filter="url(#filter0_d_2001_325)">
    <path fill-rule="evenodd" clip-rule="evenodd" d="M10.9282 3.14079L6.72 5.57039V10.4296L10.9282 12.8592L15.1364 10.4296V5.57039L10.9282 3.14079ZM17.8564 4L10.9282 0L4 4V12L10.9282 16L17.8564 12V4Z" fill="white"/>
  </g>
  <defs>
    <filter id="filter0_d_2001_325" x="0" y="0" width="21.8564" height="24" filterUnits="userSpaceOnUse" color-interpolation-filters="sRGB">
      <feFlood flood-opacity="0" result="BackgroundImageFix"/>
      <feColorMatrix in="SourceAlpha" type="matrix" values="0 0 0 0 0 0 0 0 0 0 0 0 0 0 0 0 0 0 127 0" result="hardAlpha"/>
      <feOffset dy="4"/>
      <feGaussianBlur stdDeviation="2"/>
      <feComposite in2="hardAlpha" operator="out"/>
      <feColorMatrix type="matrix" values="0 0 0 0 0 0 0 0 0 0 0 0 0 0 0 0 0 0 0.25 0"/>
      <feBlend mode="normal" in2="BackgroundImageFix" result="effect1_dropShadow_2001_325"/>
      <feBlend mode="normal" in="SourceGraphic" in2="effect1_dropShadow_2001_325" result="shape"/>
    </filter>
  </defs>
</svg>
