<svg width="86" height="24" viewBox="0 0 86 24" fill="none" xmlns="http://www.w3.org/2000/svg">
<path d="M27.6976 15V4.39998H29.8976V15H27.6976ZM28.7976 3.19998C28.3843 3.19998 28.0443 3.07331 27.7776 2.81998C27.5243 2.55331 27.3976 2.21331 27.3976 1.79998C27.3976 1.38664 27.5243 1.05331 27.7776 0.799975C28.0443 0.533308 28.3843 0.399975 28.7976 0.399975C29.2109 0.399975 29.5443 0.533308 29.7976 0.799975C30.0643 1.05331 30.1976 1.38664 30.1976 1.79998C30.1976 2.21331 30.0643 2.55331 29.7976 2.81998C29.5443 3.07331 29.2109 3.19998 28.7976 3.19998ZM36.2882 15.1C35.5282 15.1 34.9016 14.9933 34.4082 14.78C33.9282 14.5533 33.5682 14.1867 33.3282 13.68C33.1016 13.16 32.9882 12.4733 32.9882 11.62V0.999975H35.1882V11.46C35.1882 12.1133 35.2949 12.5667 35.5082 12.82C35.7216 13.06 36.1149 13.18 36.6882 13.18C36.8349 13.18 36.9616 13.18 37.0682 13.18C37.1749 13.1667 37.2816 13.1533 37.3882 13.14V15.04C37.3216 15.0533 37.2149 15.0667 37.0682 15.08C36.9349 15.0933 36.7949 15.1 36.6482 15.1C36.5149 15.1 36.3949 15.1 36.2882 15.1ZM43.0922 15.22C41.8388 15.22 40.8922 14.86 40.2522 14.14C39.6122 13.4067 39.2922 12.2933 39.2922 10.8V4.39998H41.4922V10.6C41.4922 11.4933 41.6722 12.1667 42.0322 12.62C42.4055 13.0733 42.9922 13.3 43.7922 13.3C44.3788 13.3 44.8522 13.1733 45.2122 12.92C45.5855 12.6667 45.8588 12.3333 46.0322 11.92C46.2055 11.5067 46.2922 11.0667 46.2922 10.6V4.39998H48.4922V15H46.4522V13.2C46.1988 13.7467 45.7855 14.22 45.2122 14.62C44.6522 15.02 43.9455 15.22 43.0922 15.22ZM51.2867 15V4.39998H53.3267V6.19998C53.5667 5.65332 53.9534 5.17998 54.4867 4.77998C55.02 4.37998 55.6334 4.17998 56.3267 4.17998C57.2067 4.17998 57.8934 4.36665 58.3867 4.73998C58.8801 5.11332 59.2201 5.59998 59.4067 6.19998C59.7134 5.59998 60.1401 5.11332 60.6867 4.73998C61.2467 4.36665 61.8934 4.17998 62.6267 4.17998C63.7334 4.17998 64.5867 4.50665 65.1867 5.15998C65.7867 5.81332 66.0867 6.82665 66.0867 8.19999V15H63.8867V8.69999C63.8867 7.75332 63.7067 7.08665 63.3467 6.69999C63.0001 6.29998 62.5267 6.09998 61.9267 6.09998C61.4467 6.09998 61.0467 6.21332 60.7267 6.43998C60.4201 6.65332 60.1867 6.95999 60.0267 7.35999C59.8667 7.74665 59.7867 8.19332 59.7867 8.69999V15H57.5867V8.69999C57.5867 7.75332 57.4067 7.08665 57.0467 6.69999C56.7001 6.29998 56.2267 6.09998 55.6267 6.09998C55.1467 6.09998 54.7467 6.21332 54.4267 6.43998C54.12 6.65332 53.8867 6.95999 53.7267 7.35999C53.5667 7.74665 53.4867 8.19332 53.4867 8.69999V15H51.2867ZM70.4867 15.22C70.1934 15.22 69.9201 15.1467 69.6667 15C69.4267 14.8667 69.2334 14.68 69.0867 14.44C68.9534 14.1867 68.8867 13.9133 68.8867 13.62C68.8867 13.1533 69.0401 12.7733 69.3467 12.48C69.6534 12.1733 70.0334 12.02 70.4867 12.02C70.9401 12.02 71.3201 12.1733 71.6267 12.48C71.9334 12.7733 72.0867 13.1533 72.0867 13.62C72.0867 13.9133 72.0134 14.1867 71.8667 14.44C71.7334 14.68 71.5467 14.8667 71.3067 15C71.0667 15.1467 70.7934 15.22 70.4867 15.22ZM75.2071 15V6.27998H73.8071V4.39998H75.2071V4.09998C75.2071 3.39331 75.3204 2.80664 75.5471 2.33998C75.7871 1.85998 76.1671 1.49998 76.6871 1.25998C77.2071 1.01998 77.8804 0.899975 78.7071 0.899975C78.9071 0.899975 79.1337 0.906642 79.3871 0.919975C79.6404 0.919975 79.9137 0.933308 80.2071 0.959975V2.87998C80.0071 2.85331 79.7871 2.83998 79.5471 2.83998C79.3204 2.82665 79.1071 2.81998 78.9071 2.81998C78.3471 2.81998 77.9537 2.92665 77.7271 3.13998C77.5137 3.33998 77.4071 3.69331 77.4071 4.19998V4.39998H80.0071V6.27998H77.4071V15H75.2071ZM82.1118 15V4.39998H84.3118V15H82.1118ZM83.2118 3.19998C82.7984 3.19998 82.4584 3.07331 82.1918 2.81998C81.9384 2.55331 81.8118 2.21331 81.8118 1.79998C81.8118 1.38664 81.9384 1.05331 82.1918 0.799975C82.4584 0.533308 82.7984 0.399975 83.2118 0.399975C83.6251 0.399975 83.9584 0.533308 84.2118 0.799975C84.4784 1.05331 84.6118 1.38664 84.6118 1.79998C84.6118 2.21331 84.4784 2.55331 84.2118 2.81998C83.9584 3.07331 83.6251 3.19998 83.2118 3.19998Z" fill="white"/>
<g filter="url(#filter0_d_184_4433)">
<path fill-rule="evenodd" clip-rule="evenodd" d="M10.9282 3.14079L6.72 5.57039V10.4296L10.9282 12.8592L15.1364 10.4296V5.57039L10.9282 3.14079ZM17.8564 4L10.9282 0L4 4V12L10.9282 16L17.8564 12V4Z" fill="white"/>
</g>
<defs>
<filter id="filter0_d_184_4433" x="0" y="0" width="21.8564" height="24" filterUnits="userSpaceOnUse" color-interpolation-filters="sRGB">
<feFlood flood-opacity="0" result="BackgroundImageFix"/>
<feColorMatrix in="SourceAlpha" type="matrix" values="0 0 0 0 0 0 0 0 0 0 0 0 0 0 0 0 0 0 127 0" result="hardAlpha"/>
<feOffset dy="4"/>
<feGaussianBlur stdDeviation="2"/>
<feComposite in2="hardAlpha" operator="out"/>
<feColorMatrix type="matrix" values="0 0 0 0 0 0 0 0 0 0 0 0 0 0 0 0 0 0 0.25 0"/>
<feBlend mode="normal" in2="BackgroundImageFix" result="effect1_dropShadow_184_4433"/>
<feBlend mode="normal" in="SourceGraphic" in2="effect1_dropShadow_184_4433" result="shape"/>
</filter>
</defs>
</svg>
