<svg width="12" height="12" viewBox="0 0 12 12" fill="none" xmlns="http://www.w3.org/2000/svg">
<path d="M6 12.0003C5.60417 12.0003 5.23958 11.9013 4.90625 11.7034C4.58333 11.5159 4.32292 11.2607 4.125 10.9378C3.9375 10.6044 3.84375 10.2399 3.84375 9.84399C3.84375 9.34401 3.95833 8.92737 4.1875 8.59401C4.41667 8.26071 4.77083 7.87005 5.25 7.42215C5.60417 7.09923 5.78125 6.79191 5.78125 6.50025V6.21903H5.5C5.17708 6.21903 4.73437 6.54195 4.17187 7.18779C3.61979 7.83363 2.94791 8.15649 2.15625 8.15649C1.76042 8.15649 1.39583 8.06277 1.0625 7.87527C0.739584 7.67733 0.479167 7.41693 0.28125 7.09401C0.09375 6.76071 0 6.39609 0 6.00027C0 5.60444 0.09375 5.24507 0.28125 4.92215C0.479167 4.58882 0.739584 4.3284 1.0625 4.1409C1.39583 3.94298 1.76042 3.84402 2.15625 3.84402C2.9375 3.84402 3.60416 4.16173 4.15625 4.79715C4.70833 5.43257 5.15625 5.75027 5.5 5.75027H5.78125V5.50028C5.78125 5.2086 5.60417 4.90131 5.25 4.5784L4.89062 4.25027C4.63021 4.01069 4.39063 3.72423 4.17187 3.3909C3.95312 3.04715 3.84375 2.63569 3.84375 2.15652C3.84375 1.76069 3.9375 1.40132 4.125 1.0784C4.32292 0.745067 4.58333 0.48465 4.90625 0.297149C5.23958 0.0992326 5.60417 0.000274658 6 0.000274658C6.39582 0.000274658 6.75522 0.0992326 7.07814 0.297149C7.41144 0.495066 7.6719 0.755483 7.8594 1.0784C8.05728 1.40132 8.15622 1.76069 8.15622 2.15652C8.15622 2.93777 7.83852 3.60444 7.20312 4.15652C6.56772 4.70861 6.25002 5.15652 6.25002 5.50028V5.75027H6.49998C6.85416 5.75027 7.30206 5.43257 7.84374 4.79715C8.37498 4.16173 9.04164 3.84402 9.84378 3.84402C10.2396 3.84402 10.5989 3.94298 10.9219 4.1409C11.2552 4.3284 11.5156 4.58361 11.7031 4.90652C11.9011 5.22944 12 5.59403 12 6.00027C12 6.39609 11.9011 6.76071 11.7031 7.09401C11.5156 7.41693 11.2552 7.67733 10.9219 7.87527C10.5989 8.06277 10.2396 8.15649 9.84378 8.15649C9.35418 8.15649 8.93232 8.03673 8.57814 7.79715C8.2344 7.55757 7.84896 7.20861 7.42188 6.75027C7.09896 6.39609 6.79164 6.21903 6.49998 6.21903H6.25002V6.50025C6.25002 6.88569 6.56772 7.33359 7.20312 7.84401C7.83852 8.35443 8.15622 9.02109 8.15622 9.84399C8.15622 10.2399 8.05728 10.6044 7.8594 10.9378C7.6719 11.2607 7.41666 11.5159 7.09374 11.7034C6.77082 11.9013 6.40626 12.0003 6 12.0003Z" fill="url(#paint0_linear_9_5)"/>
<defs>
<linearGradient id="paint0_linear_9_5" x1="5.13545" y1="0.000274611" x2="5.13545" y2="12.0003" gradientUnits="userSpaceOnUse">
<stop stop-color="#ADCBF3"/>
<stop offset="1" stop-color="#DAE9FD"/>
</linearGradient>
</defs>
</svg>
