<svg width="20" height="20" viewBox="0 0 20 20" fill="none" xmlns="http://www.w3.org/2000/svg">
<path d="M15.7758 4.43858C14.7136 3.92702 13.5744 3.55011 12.3834 3.33422C12.3617 3.33005 12.34 3.34047 12.3289 3.36128C12.1823 3.63477 12.0201 3.99153 11.9064 4.27196C10.6254 4.07066 9.35093 4.07066 8.09617 4.27196C7.9825 3.98531 7.81434 3.63477 7.66717 3.36128C7.656 3.34115 7.63432 3.33073 7.61264 3.33422C6.42228 3.54939 5.28315 3.92631 4.22019 4.43858C4.21098 4.44275 4.2031 4.44969 4.19786 4.45871C2.03718 7.84673 1.44526 11.1515 1.73562 14.4152C1.73692 14.4312 1.74548 14.4465 1.7573 14.4562C3.18286 15.555 4.56378 16.222 5.91902 16.6642C5.9407 16.6712 5.96368 16.6629 5.97749 16.6441C6.29806 16.1846 6.58384 15.7001 6.82885 15.1906C6.84331 15.1608 6.82951 15.1253 6.79995 15.1135C6.34666 14.9331 5.91505 14.713 5.49985 14.4632C5.467 14.4431 5.46437 14.3938 5.49461 14.3701C5.58198 14.3014 5.66938 14.2299 5.75281 14.1577C5.76792 14.1445 5.78895 14.1418 5.80669 14.1501C8.53429 15.4572 11.4873 15.4572 14.1827 14.1501C14.2004 14.1411 14.2214 14.1439 14.2372 14.157C14.3207 14.2292 14.408 14.3014 14.4961 14.3701C14.5263 14.3937 14.5243 14.443 14.4915 14.4631C14.0763 14.7179 13.6447 14.9331 13.1907 15.1128C13.1612 15.1246 13.148 15.1607 13.1625 15.1906C13.4128 15.6994 13.6986 16.1839 14.0132 16.6434C14.0264 16.6628 14.05 16.6712 14.0717 16.6642C15.4335 16.222 16.8144 15.555 18.24 14.4562C18.2525 14.4465 18.2603 14.4319 18.2616 14.4159C18.6092 10.6427 17.6796 7.36499 15.7975 4.45939C15.7929 4.44969 15.785 4.44275 15.7758 4.43858ZM7.23624 12.4279C6.41505 12.4279 5.73839 11.6367 5.73839 10.6649C5.73839 9.6931 6.4019 8.90179 7.23624 8.90179C8.0771 8.90179 8.74722 9.70003 8.73407 10.6649C8.73407 11.6367 8.07052 12.4279 7.23624 12.4279ZM12.7742 12.4279C11.9531 12.4279 11.2764 11.6367 11.2764 10.6649C11.2764 9.6931 11.9399 8.90179 12.7742 8.90179C13.6151 8.90179 14.2852 9.70003 14.2721 10.6649C14.2721 11.6367 13.6152 12.4279 12.7742 12.4279Z" fill="#97A1C0"/>
</svg>
