<svg width="14" height="15" viewBox="0 0 14 15" fill="none" xmlns="http://www.w3.org/2000/svg">
<path d="M6.50016 4.73166C5.87623 4.90227 5.50016 5.38104 5.50016 5.83334C5.50016 6.28565 5.87623 6.76441 6.50016 6.93502V4.73166Z" fill="white" fill-opacity="0.4"/>
<path d="M7.50016 8.065V10.2684C8.1241 10.0977 8.50016 9.61898 8.50016 9.16668C8.50016 8.71437 8.1241 8.2356 7.50016 8.065Z" fill="white" fill-opacity="0.4"/>
<path fill-rule="evenodd" clip-rule="evenodd" d="M13.6668 7.50001C13.6668 11.1819 10.6821 14.1667 7.00016 14.1667C3.31826 14.1667 0.333496 11.1819 0.333496 7.50001C0.333496 3.81811 3.31826 0.833344 7.00016 0.833344C10.6821 0.833344 13.6668 3.81811 13.6668 7.50001ZM7.00016 3.00001C7.2763 3.00001 7.50016 3.22387 7.50016 3.50001V3.71117C8.58712 3.90579 9.50016 4.72242 9.50016 5.83334C9.50016 6.10949 9.2763 6.33334 9.00016 6.33334C8.72402 6.33334 8.50016 6.10949 8.50016 5.83334C8.50016 5.38104 8.1241 4.90227 7.50016 4.73166V7.0445C8.58712 7.23912 9.50016 8.05575 9.50016 9.16668C9.50016 10.2776 8.58712 11.0942 7.50016 11.2889V11.5C7.50016 11.7762 7.2763 12 7.00016 12C6.72402 12 6.50016 11.7762 6.50016 11.5V11.2889C5.41321 11.0942 4.50016 10.2776 4.50016 9.16668C4.50016 8.89053 4.72402 8.66668 5.00016 8.66668C5.2763 8.66668 5.50016 8.89053 5.50016 9.16668C5.50016 9.61898 5.87623 10.0977 6.50016 10.2684V7.95552C5.41321 7.7609 4.50016 6.94427 4.50016 5.83334C4.50016 4.72242 5.41321 3.90579 6.50016 3.71117V3.50001C6.50016 3.22387 6.72402 3.00001 7.00016 3.00001Z" fill="white" fill-opacity="0.4"/>
</svg>
