<svg width="18" height="18" viewBox="0 0 18 18" fill="none"
  xmlns="http://www.w3.org/2000/svg">
  <path fill-rule="evenodd" clip-rule="evenodd" d="M3.12734 0.875001C3.14035 0.875002 3.15341 0.875002 3.16651 0.875002L14.8723 0.875001C15.4281 0.874975 15.9032 0.874953 16.283 0.922853C16.6857 0.973655 17.075 1.08775 17.3947 1.3877C17.72 1.69295 17.8493 2.0738 17.9061 2.47004C17.9583 2.83404 17.9582 3.28664 17.9582 3.80299L17.9582 4.4501C17.9582 4.85719 17.9582 5.20912 17.9278 5.50259C17.8951 5.81839 17.8236 6.11466 17.652 6.39911C17.4816 6.68142 17.2521 6.88633 16.9877 7.07003C16.7386 7.24308 16.4203 7.42225 16.0459 7.63296L13.5939 9.01329C13.0357 9.32749 12.8414 9.44063 12.7116 9.55327C12.4137 9.81197 12.243 10.099 12.1628 10.4587C12.1286 10.6124 12.1248 10.806 12.1248 11.3941L12.1248 13.6708C12.1249 14.4219 12.1249 15.0595 12.0476 15.5496C11.9655 16.0709 11.7747 16.5708 11.2746 16.8835C10.786 17.1892 10.2478 17.1611 9.72467 17.0369C9.22088 16.9172 8.60006 16.6745 7.85514 16.3833L7.78274 16.355C7.4338 16.2186 7.12826 16.0991 6.88638 15.9743C6.62642 15.84 6.385 15.673 6.2003 15.4131C6.01351 15.1502 5.93863 14.8684 5.90524 14.5803C5.87479 14.3175 5.87481 14.0022 5.87484 13.6505L5.87484 11.3941C5.87484 10.806 5.87113 10.6124 5.83685 10.4587C5.75667 10.099 5.58602 9.81197 5.28804 9.55327C5.15828 9.44063 4.96394 9.32749 4.40579 9.01329L1.95376 7.63296C1.57941 7.42225 1.26111 7.24308 1.01199 7.07003C0.74754 6.88633 0.518095 6.68142 0.34773 6.39911C0.176074 6.11466 0.104592 5.81839 0.071877 5.50259C0.0414742 5.20912 0.0414895 4.85719 0.0415073 4.4501L0.0415082 3.84555C0.0415082 3.83131 0.0415071 3.81712 0.041506 3.80297C0.0414671 3.28663 0.041433 2.83403 0.0935927 2.47004C0.150374 2.0738 0.279637 1.69295 0.604987 1.3877C0.924696 1.08775 1.31396 0.973655 1.7167 0.922853C2.09644 0.874953 2.57156 0.874975 3.12734 0.875001ZM1.87314 2.16303C1.59509 2.1981 1.50667 2.25576 1.46026 2.2993C1.4195 2.33755 1.3657 2.40487 1.33095 2.64736C1.29301 2.91212 1.29151 3.2739 1.29151 3.84555V4.4204C1.29151 4.86558 1.29228 5.15231 1.31522 5.37379C1.33659 5.58005 1.37328 5.67923 1.41795 5.75326C1.46392 5.82943 1.54026 5.915 1.72512 6.04341C1.91988 6.1787 2.18597 6.32923 2.59145 6.55749L5.01897 7.92402C5.0417 7.93682 5.06409 7.94941 5.08614 7.96182C5.55173 8.22376 5.86882 8.40215 6.1075 8.60936C6.6003 9.03719 6.91648 9.55685 7.0569 10.1866C7.12514 10.4927 7.12502 10.8359 7.12486 11.3204C7.12485 11.3446 7.12484 11.3692 7.12484 11.3941V13.6187C7.12484 14.0121 7.12581 14.2542 7.14693 14.4364C7.16602 14.6011 7.19611 14.6565 7.21926 14.6891C7.24449 14.7246 7.29448 14.7782 7.45986 14.8636C7.63688 14.955 7.88074 15.0512 8.26586 15.2017C9.0667 15.5148 9.60537 15.7238 10.0135 15.8207C10.4124 15.9154 10.5438 15.8663 10.6118 15.8238C10.6684 15.7884 10.7559 15.7164 10.8129 15.355C10.873 14.9738 10.8748 14.4362 10.8748 13.6187V11.3941C10.8748 11.3692 10.8748 11.3446 10.8748 11.3204C10.8747 10.8359 10.8745 10.4927 10.9428 10.1866C11.0832 9.55684 11.3994 9.03719 11.8922 8.60936C12.1309 8.40215 12.4479 8.22376 12.9135 7.96184C12.9356 7.94942 12.958 7.93682 12.9807 7.92402L15.4082 6.55749C15.8137 6.32923 16.0798 6.1787 16.2746 6.04341C16.4594 5.915 16.5358 5.82943 16.5817 5.75326C16.6264 5.67923 16.6631 5.58005 16.6845 5.37379C16.7074 5.15231 16.7082 4.86558 16.7082 4.4204V3.84555C16.7082 3.2739 16.7067 2.91212 16.6687 2.64736C16.634 2.40487 16.5802 2.33755 16.5394 2.2993C16.493 2.25576 16.4046 2.1981 16.1265 2.16303C15.8344 2.12617 15.439 2.125 14.8332 2.125H3.16651C2.56065 2.125 2.16529 2.12617 1.87314 2.16303Z" fill="#BFC7FD"/>
</svg>