<svg width="138" height="17" viewBox="0 0 138 17" fill="none" xmlns="http://www.w3.org/2000/svg">
<path d="M2.45057 16.2767V7.03665H0V4.67095H2.45057V4.08748C2.45057 3.17514 2.63092 2.42901 2.99161 1.84908C3.35937 1.26207 3.90041 0.830657 4.61471 0.554835C5.32902 0.27194 6.20246 0.130493 7.23502 0.130493C7.69473 0.130493 8.13321 0.15171 8.55048 0.194144C8.96775 0.236579 9.32844 0.293157 9.63255 0.363881V2.43255C9.37795 2.39011 9.11627 2.35829 8.84752 2.33707C8.58585 2.31585 8.30649 2.30524 8.00945 2.30524C7.22442 2.30524 6.65155 2.45376 6.29086 2.7508C5.93017 3.04784 5.74983 3.51815 5.74983 4.16174V4.67095H9.5583V7.03665H5.82409V16.2767H2.45057Z" fill="white"/>
<path d="M15.9765 16.4783C14.958 16.4783 14.0669 16.3403 13.3031 16.0645C12.5393 15.7887 11.9452 15.382 11.5209 14.8445C11.1036 14.307 10.895 13.6458 10.895 12.8607V12.8395C10.895 12.1747 11.0682 11.5913 11.4148 11.0891C11.7613 10.587 12.3094 10.1945 13.0591 9.91157C13.8088 9.6216 14.7812 9.46247 15.9765 9.43418L22.5538 9.30688V11.1315L16.4963 11.2801C15.69 11.3013 15.1066 11.4321 14.7459 11.6726C14.3923 11.906 14.2154 12.2348 14.2154 12.6592V12.6804C14.2154 13.2179 14.463 13.6175 14.958 13.8792C15.4602 14.1408 16.1179 14.2717 16.9312 14.2717C17.7304 14.2717 18.4235 14.1621 19.0105 13.9428C19.6046 13.7165 20.0643 13.4053 20.3896 13.0093C20.7149 12.6061 20.8776 12.1323 20.8776 11.5877V8.92497C20.8776 8.22481 20.6053 7.68731 20.0607 7.31248C19.5232 6.93057 18.7524 6.73961 17.7481 6.73961C16.8782 6.73961 16.1816 6.87399 15.6582 7.14274C15.1349 7.40442 14.7989 7.76864 14.6504 8.23542L14.6292 8.30968H11.4254L11.4466 8.19298C11.581 7.44331 11.9169 6.78558 12.4544 6.2198C12.9919 5.64693 13.7098 5.20138 14.608 4.88312C15.5132 4.55779 16.5811 4.39513 17.8117 4.39513C19.1696 4.39513 20.3295 4.57194 21.2913 4.92555C22.2532 5.27917 22.9852 5.79545 23.4873 6.4744C23.9894 7.14627 24.2405 7.9596 24.2405 8.91436V16.2767H20.8776V14.3672H20.7821C20.5134 14.8056 20.1421 15.184 19.6682 15.5023C19.2015 15.8135 18.6533 16.0539 18.0239 16.2237C17.4015 16.3934 16.7191 16.4783 15.9765 16.4783Z" fill="white"/>
<path d="M34.2338 16.5525C32.7556 16.5525 31.4755 16.3085 30.3935 15.8205C29.3114 15.3255 28.4733 14.6253 27.8792 13.72C27.2922 12.8077 26.9987 11.7256 26.9987 10.4738V10.4526C26.9987 9.20079 27.2922 8.1258 27.8792 7.22761C28.4733 6.32234 29.3114 5.62572 30.3935 5.13772C31.4755 4.64266 32.7556 4.39513 34.2338 4.39513C35.5209 4.39513 36.649 4.58254 37.6179 4.95738C38.5939 5.32514 39.3789 5.85203 39.973 6.53805C40.5741 7.217 40.949 8.02325 41.0975 8.9568L41.1081 9.04167H37.8513L37.8301 8.97802C37.632 8.31321 37.2289 7.7934 36.6207 7.41856C36.0125 7.03665 35.2451 6.8457 34.3186 6.8457C33.5053 6.8457 32.8087 6.99068 32.2287 7.28065C31.6559 7.57062 31.2139 7.98435 30.9027 8.52185C30.5915 9.05228 30.4359 9.69586 30.4359 10.4526V10.4738C30.4359 11.2306 30.5915 11.8812 30.9027 12.4258C31.2139 12.9633 31.6594 13.377 32.2394 13.667C32.8193 13.9499 33.5124 14.0913 34.3186 14.0913C35.238 14.0913 35.9983 13.9145 36.5995 13.5609C37.2077 13.2002 37.6179 12.6804 37.8301 12.0015L37.8513 11.9272H41.1081L41.0975 12.0227C40.9348 12.9491 40.5564 13.7519 39.9624 14.4308C39.3683 15.1027 38.5833 15.626 37.6073 16.0009C36.6384 16.3686 35.5139 16.5525 34.2338 16.5525Z" fill="white"/>
<path d="M50.5073 16.5525C48.9938 16.5525 47.6889 16.3156 46.5927 15.8417C45.5036 15.3608 44.662 14.6713 44.0679 13.7731C43.4809 12.8749 43.1874 11.7893 43.1874 10.5163V10.5056C43.1874 9.25384 43.4879 8.17177 44.0891 7.25943C44.6902 6.34003 45.5283 5.63279 46.6033 5.13772C47.6783 4.63559 48.9266 4.38805 50.3481 4.39513C51.805 4.4022 67.5431 4.66034 68.5969 5.16955C69.6577 5.67876 70.4711 6.39307 71.0368 7.31248C71.6026 8.23188 71.8855 9.31042 71.8855 10.5481V11.227L44.9272 11.2164V9.33871H69.7214L68.6817 10.7603V10.0601C68.6817 9.367 68.5297 8.76938 68.2256 8.26724C67.9285 7.76511 67.4971 7.37966 66.9313 7.11091C66.3655 6.83509 51.2039 6.69718 50.4118 6.69718C49.5843 6.69718 48.8771 6.83155 48.2901 7.1003C47.7101 7.36905 47.261 7.76157 46.9428 8.27785C46.6316 8.79413 46.476 9.43418 46.476 10.198V10.7284C46.476 11.5771 46.6564 12.2596 47.0171 12.7759C47.3777 13.2922 47.8693 13.6705 48.4916 13.911C49.1211 14.1444 49.8283 14.2611 50.6133 14.2611C51.1508 14.2611 51.6424 14.2045 52.0879 14.0913C52.5406 13.9711 67.4158 13.8084 67.7482 13.6033C68.0806 13.3982 68.3246 13.1578 68.4802 12.882L68.5226 12.8077H71.7158L71.684 12.9138C71.5142 13.4725 71.2313 13.9782 70.8353 14.4308C70.4463 14.8764 69.9618 15.2583 69.3819 15.5765C68.802 15.8877 68.1407 16.1282 67.3981 16.2979C66.6626 16.4676 51.3772 16.5525 50.5073 16.5525Z" fill="white"/>
<path d="M74.7392 11.1103V8.28846H83.5125V11.1103H74.7392Z" fill="white"/>
<path d="M108.169 16.5525C106.684 16.5525 90.9066 16.305 89.8033 15.8099C88.7071 15.3149 87.8549 14.6147 87.2467 13.7094C86.6385 12.8042 86.3344 11.7292 86.3344 10.4844V10.4632C86.3344 9.21848 86.6385 8.14348 87.2467 7.23822C87.8549 6.33295 88.7071 5.63279 89.8033 5.13772C90.9066 4.64266 106.684 4.39513 108.169 4.39513C109.647 4.39513 110.934 4.64266 112.03 5.13772C113.134 5.62572 113.986 6.32588 114.587 7.23822C115.195 8.14348 115.499 9.21848 115.499 10.4632V10.4844C115.499 11.7292 115.195 12.8042 114.587 13.7094C113.986 14.6147 113.134 15.3149 112.03 15.8099C110.934 16.305 109.647 16.5525 108.169 16.5525ZM108.169 14.0913C108.947 14.0913 109.626 13.9499 110.206 13.667C110.793 13.3841 111.249 12.9739 111.574 12.4364C111.899 11.8989 112.062 11.2482 112.062 10.4844V10.4632C112.062 9.6994 111.899 9.04874 111.574 8.51124C111.249 7.97374 110.793 7.56354 110.206 7.28065C109.626 6.99068 108.947 6.8457 108.169 6.8457C107.384 6.8457 92.215 6.99068 91.628 7.28065C91.0481 7.56354 90.5955 7.97374 90.2701 8.51124C89.9448 9.04874 89.7821 9.6994 89.7821 10.4632V10.4844C89.7821 11.2482 89.9448 11.8989 90.2701 12.4364C90.5955 12.9739 91.0481 13.3841 91.628 13.667C92.215 13.9499 107.384 14.0913 108.169 14.0913Z" fill="white"/>
<path d="M119.679 16.2767V7.03665H117.228V4.67095H119.679V4.08748C119.679 3.17514 119.859 2.42901 120.22 1.84908C120.588 1.26207 121.129 0.830657 121.843 0.554835C122.558 0.27194 123.431 0.130493 124.463 0.130493C124.923 0.130493 125.362 0.15171 125.779 0.194144C126.196 0.236579 126.557 0.293157 126.861 0.363881V2.43255C126.606 2.39011 126.345 2.35829 126.076 2.33707C125.814 2.31585 125.535 2.30524 125.238 2.30524C124.453 2.30524 123.88 2.45376 123.519 2.7508C123.159 3.04784 122.978 3.51815 122.978 4.16174V4.67095H126.787V7.03665H123.053V16.2767H119.679Z" fill="white"/>
<path d="M130.818 16.2767V7.03665H128.367V4.67095H130.818V4.08748C130.818 3.17514 130.998 2.42901 131.359 1.84908C131.727 1.26207 132.268 0.830657 132.982 0.554835C133.696 0.27194 134.57 0.130493 135.602 0.130493C136.062 0.130493 136.501 0.15171 136.918 0.194144C137.335 0.236579 137.696 0.293157 138 0.363881V2.43255C137.745 2.39011 137.484 2.35829 137.215 2.33707C136.953 2.31585 136.674 2.30524 136.377 2.30524C135.592 2.30524 135.019 2.45376 134.658 2.7508C134.298 3.04784 134.117 3.51815 134.117 4.16174V4.67095H137.926V7.03665H134.192V16.2767H130.818Z" fill="white"/>
<path d="M50.5071 16.5526C48.9937 16.5526 47.6888 16.3156 46.5926 15.8418C45.5035 15.3609 44.6618 14.6713 44.0678 13.7731C43.4808 12.8749 43.1873 11.7893 43.1873 10.5163V10.5057C43.1873 9.25388 43.4878 8.17181 44.089 7.25947C44.6901 6.34007 45.5282 5.63283 46.6032 5.13777C47.6782 4.63563 48.9265 4.38809 50.348 4.39517C51.8049 4.40224 67.543 4.66038 68.5968 5.16959C69.6576 5.6788 70.4709 6.39311 71.0367 7.31252C71.6025 8.23192 71.8854 9.31046 71.8854 10.5481V11.2271L44.9271 11.2165V9.33875H69.7213L68.6816 10.7603V10.0601C68.6816 9.36704 68.5296 8.76942 68.2255 8.26729C67.9284 7.76515 67.497 7.3797 66.9312 7.11095C66.3654 6.83513 51.2038 6.69722 50.4117 6.69722C49.5842 6.69722 48.877 6.8316 48.29 7.10034C47.71 7.36909 47.2609 7.76161 46.9427 8.27789C46.6315 8.79418 46.4759 9.43422 46.4759 10.198V10.7285C46.4759 11.5771 46.6563 12.2596 47.0169 12.7759C47.3776 13.2922 47.8692 13.6706 48.4915 13.911C49.121 14.1444 49.8282 14.2611 50.6132 14.2611C51.1507 14.2611 51.6423 14.2045 52.0878 14.0914C52.5405 13.9711 67.4157 13.8085 67.7481 13.6034C68.0805 13.3983 68.3245 13.1578 68.4801 12.882L68.5225 12.8077H71.7157L71.6838 12.9138C71.5141 13.4725 71.2312 13.9782 70.8352 14.4308C70.4462 14.8764 69.9617 15.2583 69.3818 15.5766C68.8019 15.8878 68.1406 16.1282 67.398 16.2979C66.6625 16.4677 51.377 16.5526 50.5071 16.5526Z" fill="url(#paint0_linear_5_2458)"/>
<path d="M50.5071 16.5526C48.9937 16.5526 47.6888 16.3156 46.5926 15.8418C45.5035 15.3609 44.6618 14.6713 44.0678 13.7731C43.4808 12.8749 43.1873 11.7893 43.1873 10.5163V10.5057C43.1873 9.25388 43.4878 8.17181 44.089 7.25947C44.6901 6.34007 45.5282 5.63283 46.6032 5.13777C47.6782 4.63563 48.9265 4.38809 50.348 4.39517C51.8049 4.40224 67.543 4.66038 68.5968 5.16959C69.6576 5.6788 70.4709 6.39311 71.0367 7.31252C71.6025 8.23192 71.8854 9.31046 71.8854 10.5481V11.2271L44.9271 11.2165V9.33875H69.7213L68.6816 10.7603V10.0601C68.6816 9.36704 68.5296 8.76942 68.2255 8.26729C67.9284 7.76515 67.497 7.3797 66.9312 7.11095C66.3654 6.83513 51.2038 6.69722 50.4117 6.69722C49.5842 6.69722 48.877 6.8316 48.29 7.10034C47.71 7.36909 47.2609 7.76161 46.9427 8.27789C46.6315 8.79418 46.4759 9.43422 46.4759 10.198V10.7285C46.4759 11.5771 46.6563 12.2596 47.0169 12.7759C47.3776 13.2922 47.8692 13.6706 48.4915 13.911C49.121 14.1444 49.8282 14.2611 50.6132 14.2611C51.1507 14.2611 51.6423 14.2045 52.0878 14.0914C52.5405 13.9711 67.4157 13.8085 67.7481 13.6034C68.0805 13.3983 68.3245 13.1578 68.4801 12.882L68.5225 12.8077H71.7157L71.6838 12.9138C71.5141 13.4725 71.2312 13.9782 70.8352 14.4308C70.4462 14.8764 69.9617 15.2583 69.3818 15.5766C68.8019 15.8878 68.1406 16.1282 67.398 16.2979C66.6625 16.4677 51.377 16.5526 50.5071 16.5526Z" fill="url(#paint1_radial_5_2458)" fill-opacity="0.48"/>
<path d="M50.5071 16.5526C48.9937 16.5526 47.6888 16.3156 46.5926 15.8418C45.5035 15.3609 44.6618 14.6713 44.0678 13.7731C43.4808 12.8749 43.1873 11.7893 43.1873 10.5163V10.5057C43.1873 9.25388 43.4878 8.17181 44.089 7.25947C44.6901 6.34007 45.5282 5.63283 46.6032 5.13777C47.6782 4.63563 48.9265 4.38809 50.348 4.39517C51.8049 4.40224 67.543 4.66038 68.5968 5.16959C69.6576 5.6788 70.4709 6.39311 71.0367 7.31252C71.6025 8.23192 71.8854 9.31046 71.8854 10.5481V11.2271L44.9271 11.2165V9.33875H69.7213L68.6816 10.7603V10.0601C68.6816 9.36704 68.5296 8.76942 68.2255 8.26729C67.9284 7.76515 67.497 7.3797 66.9312 7.11095C66.3654 6.83513 51.2038 6.69722 50.4117 6.69722C49.5842 6.69722 48.877 6.8316 48.29 7.10034C47.71 7.36909 47.2609 7.76161 46.9427 8.27789C46.6315 8.79418 46.4759 9.43422 46.4759 10.198V10.7285C46.4759 11.5771 46.6563 12.2596 47.0169 12.7759C47.3776 13.2922 47.8692 13.6706 48.4915 13.911C49.121 14.1444 49.8282 14.2611 50.6132 14.2611C51.1507 14.2611 51.6423 14.2045 52.0878 14.0914C52.5405 13.9711 67.4157 13.8085 67.7481 13.6034C68.0805 13.3983 68.3245 13.1578 68.4801 12.882L68.5225 12.8077H71.7157L71.6838 12.9138C71.5141 13.4725 71.2312 13.9782 70.8352 14.4308C70.4462 14.8764 69.9617 15.2583 69.3818 15.5766C68.8019 15.8878 68.1406 16.1282 67.398 16.2979C66.6625 16.4677 51.377 16.5526 50.5071 16.5526Z" fill="url(#paint2_radial_5_2458)" fill-opacity="0.48"/>
<path d="M74.7391 11.1104V8.2885H83.5124V11.1104H74.7391Z" fill="url(#paint3_linear_5_2458)"/>
<path d="M74.7391 11.1104V8.2885H83.5124V11.1104H74.7391Z" fill="url(#paint4_radial_5_2458)" fill-opacity="0.48"/>
<path d="M74.7391 11.1104V8.2885H83.5124V11.1104H74.7391Z" fill="url(#paint5_radial_5_2458)" fill-opacity="0.48"/>
<path d="M108.169 16.5526C106.683 16.5526 90.9065 16.305 89.8032 15.81C88.707 15.3149 87.8548 14.6147 87.2466 13.7095C86.6384 12.8042 86.3343 11.7292 86.3343 10.4845V10.4633C86.3343 9.21852 86.6384 8.14352 87.2466 7.23826C87.8548 6.33299 88.707 5.63283 89.8032 5.13777C90.9065 4.6427 106.683 4.39517 108.169 4.39517C109.647 4.39517 110.934 4.6427 112.03 5.13777C113.133 5.62576 113.986 6.32592 114.587 7.23826C115.195 8.14352 115.499 9.21852 115.499 10.4633V10.4845C115.499 11.7292 115.195 12.8042 114.587 13.7095C113.986 14.6147 113.133 15.3149 112.03 15.81C110.934 16.305 109.647 16.5526 108.169 16.5526ZM108.169 14.0914C108.947 14.0914 109.626 13.9499 110.206 13.667C110.793 13.3841 111.249 12.9739 111.574 12.4364C111.899 11.8989 112.062 11.2483 112.062 10.4845V10.4633C112.062 9.69944 111.899 9.04878 111.574 8.51128C111.249 7.97378 110.793 7.56358 110.206 7.28069C109.626 6.99072 108.947 6.84574 108.169 6.84574C107.384 6.84574 92.2149 6.99072 91.6279 7.28069C91.048 7.56358 90.5953 7.97378 90.27 8.51128C89.9447 9.04878 89.782 9.69944 89.782 10.4633V10.4845C89.782 11.2483 89.9447 11.8989 90.27 12.4364C90.5953 12.9739 91.048 13.3841 91.6279 13.667C92.2149 13.9499 107.384 14.0914 108.169 14.0914Z" fill="url(#paint6_linear_5_2458)"/>
<path d="M108.169 16.5526C106.683 16.5526 90.9065 16.305 89.8032 15.81C88.707 15.3149 87.8548 14.6147 87.2466 13.7095C86.6384 12.8042 86.3343 11.7292 86.3343 10.4845V10.4633C86.3343 9.21852 86.6384 8.14352 87.2466 7.23826C87.8548 6.33299 88.707 5.63283 89.8032 5.13777C90.9065 4.6427 106.683 4.39517 108.169 4.39517C109.647 4.39517 110.934 4.6427 112.03 5.13777C113.133 5.62576 113.986 6.32592 114.587 7.23826C115.195 8.14352 115.499 9.21852 115.499 10.4633V10.4845C115.499 11.7292 115.195 12.8042 114.587 13.7095C113.986 14.6147 113.133 15.3149 112.03 15.81C110.934 16.305 109.647 16.5526 108.169 16.5526ZM108.169 14.0914C108.947 14.0914 109.626 13.9499 110.206 13.667C110.793 13.3841 111.249 12.9739 111.574 12.4364C111.899 11.8989 112.062 11.2483 112.062 10.4845V10.4633C112.062 9.69944 111.899 9.04878 111.574 8.51128C111.249 7.97378 110.793 7.56358 110.206 7.28069C109.626 6.99072 108.947 6.84574 108.169 6.84574C107.384 6.84574 92.2149 6.99072 91.6279 7.28069C91.048 7.56358 90.5953 7.97378 90.27 8.51128C89.9447 9.04878 89.782 9.69944 89.782 10.4633V10.4845C89.782 11.2483 89.9447 11.8989 90.27 12.4364C90.5953 12.9739 91.048 13.3841 91.6279 13.667C92.2149 13.9499 107.384 14.0914 108.169 14.0914Z" fill="url(#paint7_radial_5_2458)" fill-opacity="0.48"/>
<path d="M108.169 16.5526C106.683 16.5526 90.9065 16.305 89.8032 15.81C88.707 15.3149 87.8548 14.6147 87.2466 13.7095C86.6384 12.8042 86.3343 11.7292 86.3343 10.4845V10.4633C86.3343 9.21852 86.6384 8.14352 87.2466 7.23826C87.8548 6.33299 88.707 5.63283 89.8032 5.13777C90.9065 4.6427 106.683 4.39517 108.169 4.39517C109.647 4.39517 110.934 4.6427 112.03 5.13777C113.133 5.62576 113.986 6.32592 114.587 7.23826C115.195 8.14352 115.499 9.21852 115.499 10.4633V10.4845C115.499 11.7292 115.195 12.8042 114.587 13.7095C113.986 14.6147 113.133 15.3149 112.03 15.81C110.934 16.305 109.647 16.5526 108.169 16.5526ZM108.169 14.0914C108.947 14.0914 109.626 13.9499 110.206 13.667C110.793 13.3841 111.249 12.9739 111.574 12.4364C111.899 11.8989 112.062 11.2483 112.062 10.4845V10.4633C112.062 9.69944 111.899 9.04878 111.574 8.51128C111.249 7.97378 110.793 7.56358 110.206 7.28069C109.626 6.99072 108.947 6.84574 108.169 6.84574C107.384 6.84574 92.2149 6.99072 91.6279 7.28069C91.048 7.56358 90.5953 7.97378 90.27 8.51128C89.9447 9.04878 89.782 9.69944 89.782 10.4633V10.4845C89.782 11.2483 89.9447 11.8989 90.27 12.4364C90.5953 12.9739 91.048 13.3841 91.6279 13.667C92.2149 13.9499 107.384 14.0914 108.169 14.0914Z" fill="url(#paint8_radial_5_2458)" fill-opacity="0.48"/>
<defs>
<linearGradient id="paint0_linear_5_2458" x1="83.4183" y1="16.5526" x2="83.4183" y2="4.39502" gradientUnits="userSpaceOnUse">
<stop stop-color="#00729B"/>
<stop offset="1" stop-color="#00203D"/>
</linearGradient>
<radialGradient id="paint1_radial_5_2458" cx="0" cy="0" r="1" gradientUnits="userSpaceOnUse" gradientTransform="translate(79.3432 16.5526) rotate(-90) scale(12.1575 72.3119)">
<stop stop-color="white"/>
<stop offset="0.681943" stop-color="white" stop-opacity="0"/>
</radialGradient>
<radialGradient id="paint2_radial_5_2458" cx="0" cy="0" r="1" gradientUnits="userSpaceOnUse" gradientTransform="translate(79.3432 3.75887) rotate(90) scale(7.77517 46.246)">
<stop stop-color="white"/>
<stop offset="0.681943" stop-color="white" stop-opacity="0"/>
</radialGradient>
<linearGradient id="paint3_linear_5_2458" x1="83.4183" y1="16.5526" x2="83.4183" y2="4.39502" gradientUnits="userSpaceOnUse">
<stop stop-color="#00729B"/>
<stop offset="1" stop-color="#00203D"/>
</linearGradient>
<radialGradient id="paint4_radial_5_2458" cx="0" cy="0" r="1" gradientUnits="userSpaceOnUse" gradientTransform="translate(79.3432 16.5526) rotate(-90) scale(12.1575 72.3119)">
<stop stop-color="white"/>
<stop offset="0.681943" stop-color="white" stop-opacity="0"/>
</radialGradient>
<radialGradient id="paint5_radial_5_2458" cx="0" cy="0" r="1" gradientUnits="userSpaceOnUse" gradientTransform="translate(79.3432 3.75887) rotate(90) scale(7.77517 46.246)">
<stop stop-color="white"/>
<stop offset="0.681943" stop-color="white" stop-opacity="0"/>
</radialGradient>
<linearGradient id="paint6_linear_5_2458" x1="83.4183" y1="16.5526" x2="83.4183" y2="4.39502" gradientUnits="userSpaceOnUse">
<stop stop-color="#00729B"/>
<stop offset="1" stop-color="#00203D"/>
</linearGradient>
<radialGradient id="paint7_radial_5_2458" cx="0" cy="0" r="1" gradientUnits="userSpaceOnUse" gradientTransform="translate(79.3432 16.5526) rotate(-90) scale(12.1575 72.3119)">
<stop stop-color="white"/>
<stop offset="0.681943" stop-color="white" stop-opacity="0"/>
</radialGradient>
<radialGradient id="paint8_radial_5_2458" cx="0" cy="0" r="1" gradientUnits="userSpaceOnUse" gradientTransform="translate(79.3432 3.75887) rotate(90) scale(7.77517 46.246)">
<stop stop-color="white"/>
<stop offset="0.681943" stop-color="white" stop-opacity="0"/>
</radialGradient>
</defs>
</svg>
