<svg width="12" height="13" viewBox="0 0 12 13" fill="none" xmlns="http://www.w3.org/2000/svg">
<path d="M5.99917 0.100006C2.9071 0.101541 0.399902 2.6947 0.399902 5.8943V8.62413C0.399902 8.76843 0.465217 8.90354 0.576549 8.99105L2.98429 10.8811V12.4394C2.98429 12.6943 3.18321 12.9 3.42962 12.9H3.78737C4.03378 12.9 4.2327 12.6943 4.2327 12.4394V11.8069C4.2327 11.6456 4.35887 11.5151 4.51474 11.5151C4.6706 11.5151 4.79678 11.6456 4.79678 11.8069V12.4394C4.79678 12.6943 4.99569 12.9 5.24211 12.9H5.25695C5.50337 12.9 5.70228 12.6943 5.70228 12.4394V11.8069C5.70228 11.6456 5.82846 11.5151 5.98432 11.5151H6.01401C6.16988 11.5151 6.29605 11.6456 6.29605 11.8069V12.4394C6.29605 12.6943 6.49497 12.9 6.74138 12.9H6.75623C7.00264 12.9 7.20155 12.6943 7.20155 12.4394V11.8069C7.20155 11.6456 7.32773 11.5151 7.4836 11.5151C7.63946 11.5151 7.76564 11.6456 7.76564 11.8069V12.4394C7.76564 12.6943 7.96455 12.9 8.21097 12.9H8.5702C8.81661 12.9 9.01553 12.6943 9.01553 12.4394V10.8795L11.4233 8.98953C11.5346 8.90202 11.5999 8.76691 11.5999 8.62259V5.89279C11.5984 2.6947 9.09123 0.101541 5.99917 0.100006ZM3.65822 8.66865C2.80616 8.66865 2.11442 7.95319 2.11442 7.07191C2.11442 6.19065 2.80616 5.47518 3.65822 5.47518C4.51029 5.47518 5.20203 6.19065 5.20203 7.07191C5.20203 7.95473 4.51029 8.66865 3.65822 8.66865ZM6.43856 9.84317H5.56126C5.35789 9.84317 5.22875 9.61748 5.32672 9.43324L5.76611 8.60879C5.86705 8.41841 6.13277 8.41841 6.23371 8.60879L6.67311 9.43324C6.7696 9.61747 6.64044 9.84317 6.43856 9.84317ZM8.34011 8.66865C7.48805 8.66865 6.79631 7.95319 6.79631 7.07191C6.79631 6.19065 7.48805 5.47518 8.34011 5.47518C9.19216 5.47518 9.88392 6.19065 9.88392 7.07191C9.88392 7.95473 9.19366 8.66865 8.34011 8.66865Z" fill="white" fill-opacity="0.4"/>
</svg>
