<svg width="14" height="15" viewBox="0 0 14 15" fill="none" xmlns="http://www.w3.org/2000/svg">
<path fill-rule="evenodd" clip-rule="evenodd" d="M13.559 6.91756L13.4062 8.54105C13.1544 11.2161 13.0285 12.5537 12.2401 13.3602C11.4517 14.1667 10.2701 14.1667 7.90678 14.1667H6.09355C3.73027 14.1667 2.54864 14.1667 1.76023 13.3602C0.971815 12.5537 0.845931 11.2161 0.594164 8.54104L0.441368 6.91755C0.321363 5.64248 0.26136 5.00494 0.479486 4.74139C0.597482 4.59883 0.757934 4.51148 0.929487 4.49641C1.24662 4.46856 1.64488 4.92195 2.44141 5.82872C2.85334 6.29767 3.05931 6.53215 3.28908 6.56846C3.41639 6.58858 3.54611 6.56789 3.66367 6.50873C3.87584 6.40196 4.01729 6.11209 4.30021 5.53235L5.79145 2.47658C6.32606 1.38109 6.59337 0.833344 7.00016 0.833344C7.40696 0.833344 7.67426 1.38109 8.20887 2.47658L9.70012 5.53235C9.98303 6.11209 10.1245 6.40196 10.3367 6.50873C10.4542 6.56789 10.5839 6.58858 10.7112 6.56846C10.941 6.53215 11.147 6.29767 11.5589 5.82872C12.3554 4.92195 12.7537 4.46856 13.0708 4.49641C13.2424 4.51148 13.4028 4.59883 13.5208 4.74139C13.739 5.00494 13.679 5.64248 13.559 6.91756ZM7.63507 7.96603L7.56953 7.84846C7.3162 7.39401 7.18954 7.16678 7.00016 7.16678C6.81079 7.16678 6.68413 7.39401 6.4308 7.84846L6.36526 7.96603C6.29327 8.09517 6.25727 8.15974 6.20115 8.20234C6.14503 8.24495 6.07513 8.26076 5.93534 8.29239L5.80807 8.32119C5.31613 8.43249 5.07017 8.48814 5.01165 8.67633C4.95313 8.86451 5.12081 9.0606 5.45618 9.45277L5.54295 9.55422C5.63825 9.66567 5.6859 9.72139 5.70734 9.79032C5.72877 9.85926 5.72157 9.9336 5.70716 10.0823L5.69404 10.2177C5.64334 10.7409 5.61799 11.0025 5.77119 11.1188C5.9244 11.2351 6.1547 11.1291 6.6153 10.917L6.73446 10.8621C6.86535 10.8019 6.93079 10.7718 7.00016 10.7718C7.06953 10.7718 7.13498 10.8019 7.26587 10.8621L7.38503 10.917C7.84563 11.1291 8.07593 11.2351 8.22913 11.1188C8.38234 11.0025 8.35699 10.7409 8.30628 10.2177L8.29317 10.0823C8.27876 9.9336 8.27155 9.85926 8.29299 9.79032C8.31443 9.72139 8.36208 9.66567 8.45738 9.55422L8.54414 9.45277C8.87951 9.0606 9.0472 8.86451 8.98868 8.67633C8.93016 8.48814 8.68419 8.43249 8.19226 8.32119L8.06499 8.29239C7.92519 8.26076 7.8553 8.24495 7.79917 8.20234C7.74305 8.15974 7.70706 8.09517 7.63507 7.96603Z" fill="white" fill-opacity="0.4"/>
</svg>
